<?xml version="1.0" encoding="UTF-8"?>
<svg id="Capa_2" xmlns="http://www.w3.org/2000/svg" viewBox="0 0 237.07 291.78">
  <defs>
    <style>
      .cls-1 {
        fill: #339dd8;
      }
    </style>
  </defs>
  <g id="Capa_7">
    <g>
      <path class="cls-1" d="M117.3.04c12.81-.37,25.46,2.15,37.67,6.8,6.45,2.45,12.5,5.76,18.23,9.68,6.35,4.34,11.93,9.45,17.1,15.11,8.34,9.14,13.65,19.84,17.03,31.64,2.7,9.44,3.62,19.06,3.24,28.83-.41,10.64-2.2,21.04-5.52,31.16-5.28,16.07-13.72,30.4-24.08,43.67-3.14,4.03-6.43,7.96-10.35,11.23-5.5,4.58-10.99,9.17-17.13,12.98-6.38,3.95-12.99,7.26-20.09,9.55-8.77,2.84-17.71,3.8-26.7,1.12-5.16-1.53-8.68-5.03-10.6-10.07-1.07-2.8-1.22-5.74-1.19-8.69.11-10.68,4.54-19.44,11.89-26.93,5.37-5.47,11.85-9.33,18.49-13.01,8.52-4.73,15.99-10.76,22.11-18.38,3.3-4.12,6.15-8.55,8.04-13.5,1.13-2.95,1.96-6.02,2.8-9.08,1.85-6.8,1.93-13.62.93-20.51-2.07-14.19-9.52-24.77-21.76-32.01-5.39-3.19-11.16-5.48-17.35-6.75-8.41-1.74-16.78-1.52-25.19-.08-9.11,1.56-17.46,4.99-25.29,9.82-14.59,9.01-25.79,21.31-34.68,35.83-4.33,7.08-7.86,14.55-10.58,22.4-2.51,7.22-4.06,14.67-5.55,22.15-1.03,5.22-2.13,10.42-3.68,15.52-.59,1.94-1.49,3.72-2.83,5.32-2.4,2.87-6.33,2.17-7.93-1.27-1.01-2.18-1.51-4.48-1.92-6.79C.88,137.27-.09,128.72,0,120.07c.1-8.74.87-17.43,2.93-25.93,3.48-14.36,9.08-27.82,17.37-40.16,6.47-9.63,13.89-18.39,22.74-25.86,7.89-6.65,16.36-12.47,25.7-17,10.68-5.18,21.85-8.68,33.6-10.27,4.85-.65,9.73-.92,14.95-.82Z"/>
      <path class="cls-1" d="M237.04,166.8c.09,13.82-1.89,25.83-5.6,37.59-3.03,9.61-7.31,18.61-12.36,27.31-7.57,13.02-17.59,23.88-29.11,33.44-4.18,3.46-8.57,6.66-13.2,9.49-6.55,4.01-13.39,7.42-20.64,10.05-3.15,1.14-6.27,2.46-9.49,3.29-4.68,1.21-9.41,2.24-14.24,2.88-5.83.78-11.66.99-17.51.92-5.73-.07-11.43-.52-17.11-1.51-6.5-1.13-12.74-2.99-18.82-5.4-13.97-5.53-25.91-14.04-35.67-25.44-8.35-9.74-14.34-20.85-17.68-33.28-3.11-11.57-3.67-23.33-2.42-35.25.72-6.86,2.11-13.53,4.01-20.12,2.25-7.78,5.52-15.13,9.36-22.23,7.35-13.59,17.47-24.89,29-35.02,5.39-4.74,11.2-8.96,17.29-12.68,7.3-4.46,15.1-8.05,23.52-9.92,3.41-.76,6.89-1.36,10.43-.63,5.28,1.08,8.53,4.26,9.73,9.44,1.03,4.46,1.01,9-.68,13.29-1.97,5.02-5.72,8.41-10.78,10.27-8.18,3-15.86,6.98-22.74,12.27-4.36,3.36-8.21,7.32-11.42,11.9-2.41,3.44-4.83,6.84-6.98,10.45-3.32,5.59-5.76,11.55-7.5,17.78-1.71,6.14-3.06,12.38-2.75,18.81.36,7.6,1.56,15,4.81,22.03,3.34,7.23,8.2,13.15,14.17,18.3,4.44,3.84,9.26,7.07,14.57,9.54,3.58,1.67,7.27,3.03,11.16,3.94,10.69,2.5,21.34,2.38,32.02.08,7.59-1.64,14.86-4.15,21.71-7.8,6.32-3.37,12.21-7.38,17.61-12.1,7.81-6.83,14.34-14.78,20.23-23.26,4.94-7.09,8.88-14.75,11.84-22.87,2.02-5.53,3.91-11.11,5.18-16.89,1.17-5.3,1.55-10.7,2.36-16.05.5-3.31.96-6.63,1.91-9.83.66-2.2,2.36-4.7,5.19-4.77,2.94-.08,5.14,1.33,6.33,4.28,1.48,3.69,2.25,7.57,2.93,11.46,1.02,5.85,1.53,11.75,1.36,16.22Z"/>
    </g>
  </g>
</svg>