<?xml version="1.0" encoding="UTF-8"?>
<svg id="Capa_2" xmlns="http://www.w3.org/2000/svg" viewBox="0 0 264.94 264.27">
  <defs>
    <style>
      .cls-1 {
        fill: #474747;
      }

      .cls-2 {
        fill: #848484;
      }

      .cls-3 {
        fill: none;
      }

      .cls-4 {
        fill: #3f3f3f;
      }
    </style>
  </defs>
  <g id="Capa_7">
    <g>
      <path class="cls-2" d="M205.39,205.8c-10.23,66.77-85.94,58.53-92.1,57.75-.26-.04-.4-.05-.4-.05C49.02,254.03,0,198.97,0,132.46c0-4.91.27-9.76.79-14.54.52-.12,21.34-4.33,42.83,31.51,1.43,3.6,3.05,7.2,4.9,10.8,21.47,41.88,49.23,51.5,66.81,52.88,1.95.31,3.95.47,5.99.47,3.87,0,7.61-.58,11.13-1.66,16.84-5.14,28.7-21.65,26.64-40.59-2.08-19.22-18.41-29.85-37.59-32.27-1.64-.21-3.53-.48-5.35-.73-16.15-3.69-38.25-13.3-50.44-36.09-20.57-38.45-2.02-67.78,4.04-74.52,0,0,15.93-22.95,47.35-26.84.14-.02.29-.04.43-.05,4.9-.56,9.88-.84,14.92-.84,22.15,0,43.03,5.43,61.37,15.05-9.57-4.47-20.53-6.99-32.16-6.99-37.58,0-68.04,26.4-68.04,58.97,0,29.2,24.49,53.44,56.64,58.15,6.4.94,12.66,2.72,18.46,5.57,18.5,9.1,43.55,29.97,36.64,75.05Z"/>
      <path class="cls-3" d="M121.84,114.82s-.08-.05-.13-.08c.04.03.08.05.13.08Z"/>
      <path class="cls-3" d="M120.44,113.92s-.08-.06-.12-.08c.04.03.08.06.12.08Z"/>
      <path class="cls-3" d="M121.71,114.74c-.43-.27-.85-.54-1.27-.82.42.28.84.55,1.27.82Z"/>
      <path class="cls-1" d="M264.94,132.46c0,5.67-.35,11.26-1.05,16.74-26.99-4.52-41.84-33.19-42.3-34.1,0,0,0-.02,0-.02-1.44-4.85-3.07-9.28-4.85-13.36-10.11-23.15-25.26-34.6-40.7-42.53-9.88-5.08-20.88-7.62-31.99-7.62h-.21c-22.43,0-40.33,16.39-37.76,39.77,1.11,10.11,6.65,17.36,14.25,22.5-16.21-10.78-26.67-27.73-26.67-46.8,0-32.57,30.46-58.97,68.04-58.97,11.63,0,22.58,2.53,32.16,6.99,4.14,2.17,8.16,4.55,12.02,7.13,35.61,23.74,59.07,64.28,59.07,110.29Z"/>
      <path class="cls-4" d="M54.85,25.12s-36.13,61.45-11.22,124.32C22.13,113.6,1.32,117.81.79,117.93,4.95,79.78,25.32,46.5,54.85,25.12Z"/>
      <path class="cls-4" d="M263.89,149.2c-4.59,36.43-23.98,68.25-51.95,89.24.53-1.49,22.15-81.33,9.65-123.34.46.9,15.31,29.58,42.3,34.1Z"/>
      <path class="cls-3" d="M43.65,149.48s-.02-.03-.03-.05"/>
    </g>
  </g>
</svg>