<?xml version="1.0" encoding="UTF-8" standalone="no"?>
<svg
   id="Capa_2"
   viewBox="0 0 264.94 264.27"
   version="1.1"
   sodipodi:docname="isologogris.svg"
   inkscape:version="1.1.2 (0a00cf5339, 2022-02-04)"
   xmlns:inkscape="http://www.inkscape.org/namespaces/inkscape"
   xmlns:sodipodi="http://sodipodi.sourceforge.net/DTD/sodipodi-0.dtd"
   xmlns="http://www.w3.org/2000/svg"
   xmlns:svg="http://www.w3.org/2000/svg">
  <sodipodi:namedview
     id="namedview26"
     pagecolor="#ffffff"
     bordercolor="#666666"
     borderopacity="1.0"
     inkscape:pageshadow="2"
     inkscape:pageopacity="0.0"
     inkscape:pagecheckerboard="0"
     showgrid="false"
     inkscape:zoom="1.7780426"
     inkscape:cx="82.956394"
     inkscape:cy="113.88929"
     inkscape:window-width="1850"
     inkscape:window-height="1016"
     inkscape:window-x="70"
     inkscape:window-y="27"
     inkscape:window-maximized="1"
     inkscape:current-layer="g22" />
  <defs
     id="defs4">
    <style
       id="style2">
      .cls-1 {
        fill: #474747;
      }

      .cls-2 {
        fill: #848484;
      }

      .cls-3 {
        fill: none;
      }

      .cls-4 {
        fill: #3f3f3f;
      }
    </style>
  </defs>
  <g
     id="Capa_7"
     transform="matrix(0.81617239,0,0,0.81617239,24.890145,24.607648)">
    <g
       id="g22">
      <path
         class="cls-2"
         d="m 205.39,205.8 c -10.23,66.77 -85.94,58.53 -92.1,57.75 -0.26,-0.04 -0.4,-0.05 -0.4,-0.05 C 49.02,254.03 0,198.97 0,132.46 c 0,-4.91 0.27,-9.76 0.79,-14.54 0.52,-0.12 21.34,-4.33 42.83,31.51 1.43,3.6 3.05,7.2 4.9,10.8 21.47,41.88 49.23,51.5 66.81,52.88 1.95,0.31 3.95,0.47 5.99,0.47 3.87,0 7.61,-0.58 11.13,-1.66 16.84,-5.14 28.7,-21.65 26.64,-40.59 -2.08,-19.22 -18.41,-29.85 -37.59,-32.27 -1.64,-0.21 -3.53,-0.48 -5.35,-0.73 C 100,134.64 77.9,125.03 65.71,102.24 45.14,63.79 63.69,34.46 69.75,27.72 c 0,0 15.93,-22.95 47.35,-26.84 0.14,-0.02 0.29,-0.04 0.43,-0.05 4.9,-0.56 9.88,-0.84 14.92,-0.84 22.15,0 43.03,5.43 61.37,15.05 -9.57,-4.47 -20.53,-6.99 -32.16,-6.99 -37.58,0 -68.04,26.4 -68.04,58.97 0,29.2 24.49,53.44 56.64,58.15 6.4,0.94 12.66,2.72 18.46,5.57 18.5,9.1 43.55,29.97 36.64,75.05 z"
         id="path6"
         style="fill:#000000" />
      <path
         class="cls-3"
         d="m 121.84,114.82 c 0,0 -0.08,-0.05 -0.13,-0.08 0.04,0.03 0.08,0.05 0.13,0.08 z"
         id="path8"
         style="fill:#000000" />
      <path
         class="cls-3"
         d="m 120.44,113.92 c 0,0 -0.08,-0.06 -0.12,-0.08 0.04,0.03 0.08,0.06 0.12,0.08 z"
         id="path10"
         style="fill:#000000" />
      <path
         class="cls-3"
         d="m 121.71,114.74 c -0.43,-0.27 -0.85,-0.54 -1.27,-0.82 0.42,0.28 0.84,0.55 1.27,0.82 z"
         id="path12"
         style="fill:#000000" />
      <path
         class="cls-1"
         d="m 264.94,132.46 c 0,5.67 -0.35,11.26 -1.05,16.74 -26.99,-4.52 -41.84,-33.19 -42.3,-34.1 0,0 0,-0.02 0,-0.02 -1.44,-4.85 -3.07,-9.28 -4.85,-13.36 -10.11,-23.15 -25.26,-34.6 -40.7,-42.53 -9.88,-5.08 -20.88,-7.62 -31.99,-7.62 h -0.21 c -22.43,0 -40.33,16.39 -37.76,39.77 1.11,10.11 6.65,17.36 14.25,22.5 -16.21,-10.78 -26.67,-27.73 -26.67,-46.8 0,-32.57 30.46,-58.97 68.04,-58.97 11.63,0 22.58,2.53 32.16,6.99 4.14,2.17 8.16,4.55 12.02,7.13 35.61,23.74 59.07,64.28 59.07,110.29 z"
         id="path14"
         style="fill:#000000" />
      <path
         class="cls-4"
         d="m 54.85,25.12 c 0,0 -36.13,61.45 -11.22,124.32 C 22.13,113.6 1.32,117.81 0.79,117.93 4.95,79.78 25.32,46.5 54.85,25.12 Z"
         id="path16"
         style="fill:#000000" />
      <path
         class="cls-4"
         d="m 263.89,149.2 c -4.59,36.43 -23.98,68.25 -51.95,89.24 0.53,-1.49 22.15,-81.33 9.65,-123.34 0.46,0.9 15.31,29.58 42.3,34.1 z"
         id="path18"
         style="fill:#000000" />
      <path
         class="cls-3"
         d="m 43.65,149.48 c 0,0 -0.02,-0.03 -0.03,-0.05"
         id="path20"
         style="fill:#000000" />
      <path
         style="fill:#a0a0a0;stroke:none;stroke-width:0.562416"
         d=""
         id="path65"
         transform="matrix(1.2252314,0,0,1.2252314,-30.496186,-30.150062)" />
    </g>
  </g>
</svg>
