<?xml version="1.0" encoding="UTF-8"?>
<svg id="Capa_2" xmlns="http://www.w3.org/2000/svg" viewBox="0 0 1035.25 291.78">
  <defs>
    <style>
      .cls-1 {
        fill: #fff;
      }
    </style>
  </defs>
  <g id="Capa_7">
    <g>
      <path class="cls-1" d="M117.3.04c12.81-.37,25.46,2.15,37.67,6.8,6.45,2.45,12.5,5.76,18.23,9.68,6.35,4.34,11.93,9.45,17.1,15.11,8.34,9.14,13.65,19.84,17.03,31.64,2.7,9.44,3.62,19.06,3.24,28.83-.41,10.64-2.2,21.04-5.52,31.16-5.28,16.07-13.72,30.4-24.08,43.67-3.14,4.03-6.43,7.96-10.35,11.23-5.5,4.58-10.99,9.17-17.13,12.98-6.38,3.95-12.99,7.26-20.09,9.55-8.77,2.84-17.71,3.8-26.7,1.12-5.16-1.53-8.68-5.03-10.6-10.07-1.07-2.8-1.22-5.74-1.19-8.69.11-10.68,4.54-19.44,11.89-26.93,5.37-5.47,11.85-9.33,18.49-13.01,8.52-4.73,15.99-10.76,22.11-18.38,3.3-4.12,6.15-8.55,8.04-13.5,1.13-2.95,1.96-6.02,2.8-9.08,1.85-6.8,1.93-13.62.93-20.51-2.07-14.19-9.52-24.77-21.76-32.01-5.39-3.19-11.16-5.48-17.35-6.75-8.41-1.74-16.78-1.52-25.19-.08-9.11,1.56-17.46,4.99-25.29,9.82-14.59,9.01-25.79,21.31-34.68,35.83-4.33,7.08-7.86,14.55-10.58,22.4-2.51,7.22-4.06,14.67-5.55,22.15-1.03,5.22-2.13,10.42-3.68,15.52-.59,1.94-1.49,3.72-2.83,5.32-2.4,2.87-6.33,2.17-7.93-1.27-1.01-2.18-1.51-4.48-1.92-6.79C.88,137.27-.09,128.72,0,120.07c.1-8.74.87-17.43,2.93-25.93,3.48-14.36,9.08-27.82,17.37-40.16,6.47-9.63,13.89-18.39,22.74-25.86,7.89-6.65,16.36-12.47,25.7-17,10.68-5.18,21.85-8.68,33.6-10.27,4.85-.65,9.73-.92,14.95-.82Z"/>
      <path class="cls-1" d="M237.04,166.8c.09,13.82-1.89,25.83-5.6,37.59-3.03,9.61-7.31,18.61-12.36,27.31-7.57,13.02-17.59,23.88-29.11,33.44-4.18,3.46-8.57,6.66-13.2,9.49-6.55,4.01-13.39,7.42-20.64,10.05-3.15,1.14-6.27,2.46-9.49,3.29-4.68,1.21-9.41,2.24-14.24,2.88-5.83.78-11.66.99-17.51.92-5.73-.07-11.43-.52-17.11-1.51-6.5-1.13-12.74-2.99-18.82-5.4-13.97-5.53-25.91-14.04-35.67-25.44-8.35-9.74-14.34-20.85-17.68-33.28-3.11-11.57-3.67-23.33-2.42-35.25.72-6.86,2.11-13.53,4.01-20.12,2.25-7.78,5.52-15.13,9.36-22.23,7.35-13.59,17.47-24.89,29-35.02,5.39-4.74,11.2-8.96,17.29-12.68,7.3-4.46,15.1-8.05,23.52-9.92,3.41-.76,6.89-1.36,10.43-.63,5.28,1.08,8.53,4.26,9.73,9.44,1.03,4.46,1.01,9-.68,13.29-1.97,5.02-5.72,8.41-10.78,10.27-8.18,3-15.86,6.98-22.74,12.27-4.36,3.36-8.21,7.32-11.42,11.9-2.41,3.44-4.83,6.84-6.98,10.45-3.32,5.59-5.76,11.55-7.5,17.78-1.71,6.14-3.06,12.38-2.75,18.81.36,7.6,1.56,15,4.81,22.03,3.34,7.23,8.2,13.15,14.17,18.3,4.44,3.84,9.26,7.07,14.57,9.54,3.58,1.67,7.27,3.03,11.16,3.94,10.69,2.5,21.34,2.38,32.02.08,7.59-1.64,14.86-4.15,21.71-7.8,6.32-3.37,12.21-7.38,17.61-12.1,7.81-6.83,14.34-14.78,20.23-23.26,4.94-7.09,8.88-14.75,11.84-22.87,2.02-5.53,3.91-11.11,5.18-16.89,1.17-5.3,1.55-10.7,2.36-16.05.5-3.31.96-6.63,1.91-9.83.66-2.2,2.36-4.7,5.19-4.77,2.94-.08,5.14,1.33,6.33,4.28,1.48,3.69,2.25,7.57,2.93,11.46,1.02,5.85,1.53,11.75,1.36,16.22Z"/>
      <path class="cls-1" d="M397.59,216.67c-4.66-5.46-9.33-10.93-14.07-16.32-1.02-1.16-1.01-1.92,0-3.06,3.96-4.45,7.23-9.36,9.64-14.83,4.16-9.43,5.46-19.3,4.31-29.47-2.22-19.68-11.72-34.78-29.33-44.1-14.87-7.87-30.64-8.41-46.51-3.41-12.02,3.78-21.57,11.2-28.51,21.72-6.67,10.12-9.62,21.34-9.53,33.5.1,14.54,4.2,27.61,13.71,38.69,10.29,11.99,23.5,18.22,39.31,18.87,10.36.43,20.17-1.68,29.46-6.26,1.27-.63,2.18-.68,3.09.57,1,1.37,2.21,2.59,3.25,3.93.37.47.77.83,1.21,1.11h24.69c-.15-.35-.49-.66-.72-.93ZM373.06,176.03c-.95,2.28-2.4,4.31-3.63,6.44-.44.76-.69.57-1.14-.02-1.84-2.39-3.8-4.68-5.59-7.11-.67-.91-1.41-1.27-2.47-1.27-5.76.01-11.53.03-17.29,0-1.08,0-.92.39-.53,1.05,3.88,6.55,7.68,13.15,12.46,19.12.69.85.98,1.68-.37,2.17-8.21,2.96-16.54,3.98-24.97,1.1-10.65-3.64-17.69-11.16-21.79-21.41-3.69-9.22-3.88-18.72-1-28.23,4.26-14.07,17.46-26.04,36.64-26.06,9.03.32,18.41,4.64,25.18,13.66,9.4,12.53,10.52,26.21,4.52,40.55Z"/>
      <path class="cls-1" d="M1035.25,214.81c0,.37-.02.66-.1.88h-19.53c-.08-.23-.1-.54-.1-.94.03-14.72.03-29.44-.04-44.16,0-3.8-.47-7.57-2.12-11.07-2.24-4.73-5.81-7.42-11.16-8.29-5.22-.84-9.8-.21-13.74,3.37-3.43,3.11-5.08,7.18-5.95,11.66-.67,3.48-.76,6.98-.76,10.49,0,8.85-.07,17.69.07,26.53.06,3.91-.2,7.82.01,11.72.02.28.01.51-.04.69h-19.38c-.19-.34-.26-.82-.25-1.48.08-18.01.13-36.02.1-54.04-.03-18.65.24-37.32-.12-55.97h19.63c-.06,12.51-.1,25.02-.12,37.53-.01.85-.25,1.72.05,2.61.82-.17,1.17-.78,1.54-1.25,4.63-5.86,10.81-8.89,18.08-9.62,9.34-.95,17.87.99,24.98,7.64,5.58,5.22,8.05,11.76,8.6,19.17.22,2.79.3,5.6.3,8.4.03,15.37.01,30.75.05,46.13Z"/>
      <path class="cls-1" d="M829.6,182.55c-.45,0-.9,0-1.35,0-5.15-.15-10.31-.18-15.47,0-.94,0-1.89,0-2.83-.01,0,0,.02-.06.02-.06v.06c-.44.01-.87.02-1.3.03,0,0,0-.06,0-.06v.06c-.73.13-1.06.56-.89,1.28,2.12,8.64,9.15,16.85,18.63,18.27,9.39,1.41,16.84-2.25,22.74-9.36,1.02-1.23,1.73-1.42,3.11-.56,3.86,2.4,7.8,4.7,11.89,6.69,1.31.64,1.38,1.37.56,2.43-6.88,8.9-15.86,14.36-26.93,16.24-7.01,1.19-14.02.96-20.89-.95-13.45-3.75-22.43-12.36-26.63-25.61-3.48-10.98-3.56-22.15.83-32.91,5.77-14.16,16.47-22.44,31.69-24.43,9.98-1.3,19.46.4,28.03,6.01,9.27,6.06,14.15,14.87,15.94,25.58.88,5.27.9,10.6,1.04,15.92.03,1.28-.62,1.27-1.51,1.27-9.38.02-18.75.06-28.13.09-1.9,0-3.8.02-5.7.03-.96,0-1.92,0-2.88-.01ZM827.93,167.1v.05c6.09,0,12.18,0,18.27,0,.87,0,1.89.17,1.59-1.3-.91-4.44-2.5-8.49-6.08-11.53-10.44-8.86-28.09-5.75-33.29,11.17-.46,1.5.22,1.64,1.42,1.63,6.03-.03,12.07-.01,18.1-.01Z"/>
      <path class="cls-1" d="M665.42,173.62c0-4.99.14-10-.66-14.96-1.64-10.18-6.93-17.76-16.23-22.33-4.09-2.01-8.56-2.67-13.09-2.92-7.39-.41-14.71-.21-21.76,2.44-6.72,2.53-11.99,6.74-15.37,13.18-1.23,2.35-1.79,4.95-2.91,7.3-.68,1.42,0,1.96.85,2.16,1.52.35,3.02.79,4.55,1.09,3.85.76,7.71,1.44,11.56,2.21,1.07.21,1.76.04,2.18-1.08,2.41-6.58,7.2-10.36,14.02-11.46,5.53-.89,10.65.15,14.6,4.5,2.98,3.29,3.58,7.42,3.77,11.65.1,2.23.07,2.26-2.19,2.33-6.37.18-12.74.27-19.1.53-6.21.25-12.38.84-18.3,2.92-5.91,2.08-10.81,5.34-13.31,11.4-1.79,4.31-2.16,8.81-1.76,13.41.82,9.32,5.38,16.2,14.1,19.54,9.41,3.6,19.12,3.7,28.69.2,4.7-1.71,8.63-4.51,11.39-8.78.26-.4.51-.85,1-.91,0,2.93.15,5.88-.07,8.8-.03.38,0,.66.06.86h18.04c.03-.15.05-.34.04-.56-.06-13.84-.07-27.68-.1-41.51ZM646.95,183.3c-1.21,6.34-3.42,12.12-8.79,16.23-5.75,4.4-16.47,5.03-21.75,1.21-5.86-4.23-4.96-13.36,1.58-16.45,2.8-1.32,5.77-1.76,8.78-1.88,3.12-.13,6.25-.26,9.38-.26h0c3.18,0,6.37,0,9.55,0,.82,0,1.45.1,1.25,1.16Z"/>
      <path class="cls-1" d="M483.52,214.88c0,.33-.02.6-.07.81h-17.94l.6-8.79c.01-.08.02-.16.02-.24v-.05c-.01-.21-.1-.4-.36-.49-.42-.14-.66.21-.86.56-.07.11-.13.22-.19.31-.01,0-.02.03-.03.04-2.68,3.91-6.08,6.8-10.15,8.66-1.68.78-3.48,1.38-5.38,1.8-5.04,1.12-10.15,1.01-15.21-.01-2.07-.41-4.03-1.01-5.88-1.79-4.31-1.8-8.05-4.58-11.19-8.31-3.48-4.12-4.87-9.13-5.57-14.36-.52-3.93-.58-7.89-.59-11.84-.03-14.93,0-29.87-.07-44.8,0-1.35.37-1.61,1.64-1.59,5.21.09,10.43.15,15.65.04,1.64-.04,2.1.3,2.09,2.01-.11,13.4-.13,26.8-.11,40.19,0,4.17-.04,8.35,1.09,12.43,2.64,9.55,12.95,14.28,22.07,10.25,6.68-2.94,9.11-8.68,10.29-15.21.96-5.31.74-10.72.75-16.1,0-10.65-.02-21.3-.1-31.95-.01-1.3.29-1.65,1.62-1.63,5.54.08,11.09.07,16.64,0,1-.01,1.2.26,1.2,1.17-.02,13.23,0,26.46,0,39.69h.02c0,13.07-.01,26.13.03,39.2Z"/>
      <path class="cls-1" d="M801.88,121.09c.03,1.34-.37,1.65-1.63,1.64-10.22-.04-20.44.03-30.65-.09-1.74-.02-2.07.46-2.07,2.05.05,24.28.03,48.55.03,72.82,0,5.82-.02,11.64.01,17.46.01.29-.01.53-.06.72h-20.5c-.08-.22-.11-.5-.1-.88.38-15.04.09-30.08.13-45.13,0-15.16-.02-30.31.02-45.47.01-1.31-.53-1.54-1.66-1.53-9.67.03-19.34.03-29,.03-2.88,0-2.87-.01-2.85-2.92.02-4.73.07-9.45,0-14.17-.02-1.2.35-1.42,1.46-1.42,27.79.04,55.58.05,83.37.06,3.48.01,3.46,0,3.46,3.48-.01,4.45-.07,8.9.04,13.35Z"/>
      <path class="cls-1" d="M875.89,174.43c.16-7.99,1.7-15.64,5.9-22.55,6.24-10.28,15.64-15.92,27.29-17.92,9.14-1.57,18.04-.55,26.56,3.26,9,4.02,14.63,11.08,18.15,20.05.42,1.07.03,1.62-1,1.97-3.12,1.05-6.25,2.06-9.39,3.05-1.93.61-3.5,1.31-5.76,1.92-1.29.35-1.83.26-2.24-.83-1.45-3.84-3.56-7.14-7.18-9.31-7.39-4.43-14.79-3.99-21.98.26-7.47,4.41-10.28,11.59-10.64,19.84-.29,6.56,1.03,12.77,5.27,18.09,6.39,8.02,17.88,10.47,26.86,5.5,3.59-1.99,6.22-5.03,7.73-8.89.6-1.53,1.28-1.68,2.85-1.09,4.88,1.84,9.28,3.3,13.77,4.9,1.21.43,1.34.94.93,2.05-4.48,12.35-13.82,19.07-26.01,22.43-2.14.59-4.41.9-6.64,1-10.1.46-19.65-1.32-28.05-7.38-11.11-8.01-15.75-19.27-16.34-32.56-.03-.71-.06-1.43-.07-2.14-.01-.55,0-1.1,0-1.65Z"/>
      <path class="cls-1" d="M703.83,215.69h-19.3c-.1-.28-.11-.64-.11-1.07.03-18.56.02-37.11.02-55.68h-.02v-50.4c0-1.45.02-2.9-.07-4.34h19.4c0,34.67.02,69.34.05,104.01,0,2.25-.03,4.5.08,6.75.02.3,0,.54-.05.73Z"/>
      <path class="cls-1" d="M585.63,137.27c.02,5.05-.03,10.11-.04,15.16,0,2.27-.66,2.66-2.96,2.1-5.66-1.4-11.27-1.13-16.58,1.32-6.06,2.79-8.84,7.88-9.42,14.38-.27,3.02-.33,6.03-.32,9.05.02,11.86.04,23.73.1,35.59,0,.34-.02.61-.09.82h-19.38c-.08-.23-.11-.52-.11-.89.04-13.13.03-26.26.03-39.38h.02c0-13.13.02-26.26-.04-39.38,0-1.17.45-1.19,1.34-1.19,5,.02,10,.04,15-.06,1.08-.02,1.26.31,1.24,1.26-.09,3.3-.11,6.59-.12,9.89,0,.4-.21,1,.29,1.17.55.18.66-.47.87-.79,6.32-9.81,15.64-13.27,26.84-12.57,3.85.24,3.31-.31,3.32,3.52Z"/>
      <path class="cls-1" d="M519.78,136.4c0,13.07,0,26.14,0,39.21h-.04c0,13.07-.02,26.14.02,39.21,0,.37-.02.66-.1.88h-19.43c-.08-.19-.12-.45-.12-.8.08-16.31.1-32.62.12-48.92.01-9.99.02-19.99-.01-29.98,0-.94.21-1.18,1.14-1.17,5.71.04,11.43.07,17.13-.03,1.42-.02,1.28.7,1.28,1.61Z"/>
      <path class="cls-1" d="M508.77,122.96c-3.07.3-5.83-.9-7.98-3.07-4.32-4.36-5.04-11.56.34-16.5,4.34-4,12.22-4.21,16.79-.52,3.43,2.77,4.9,6.5,4.04,10.82-.94,4.72-3.96,7.71-8.65,8.91-1.43.37-2.92.53-4.55.35Z"/>
      <polygon class="cls-1" points="808.69 182.57 808.69 182.51 808.68 182.57 808.69 182.57"/>
      <polygon class="cls-1" points="809.97 182.54 809.99 182.48 809.96 182.54 809.97 182.54"/>
    </g>
  </g>
</svg>